{"title":"YOUR FAVORITE FRECKLE FACED REDHEAD-SiLvErDuSt.avi","uid":5087054,"size":224475136,"categoryP":"porn","categoryS":"movie_clips","magnet":"?xt=urn:btih:fbfabd77a4c24d398cdf78f9a5a6b328bdeb0a5c&amp;dn=YOUR+FAVORITE+FRECKLE+FACED+REDHEAD-SiLvErDuSt.avi&amp;tr=udp%3A%2F%2Ftracker.openbittorrent.com%3A80&amp;tr=udp%3A%2F%2Fopen.demonii.com%3A1337&amp;tr=udp%3A%2F%2Ftracker.coppersurfer.tk%3A6969&amp;tr=udp%3A%2F%2Fexodus.desync.com%3A6969","seeders":1,"leechers":0,"uploader":"dodgerblue","files":1,"time":1252800459,"description":"YOUR FAVORITE FRECKLE FACED REDHEAD-SiLvErDuSt\n\n\n\n\n\n\n\n\n\n\n\n\n\n\n\n\nVideo\nFormat                           : MPEG-4 Visual\nFormat profile                   : Simple@L3\nFormat settings, BVOP            : Yes\nFormat settings, QPel            : No\nFormat settings, GMC             : No warppoints\nFormat settings, Matrix          : Default\nMuxing mode                      : Packed bitstream\nCodec ID                         : XVID\nCodec ID/Hint                    : XviD\nDuration                         : 26mn 17s\nBit rate                         : 991 Kbps\nWidth                            : 512 pixels\nHeight                           : 384 pixels\nDisplay aspect ratio             : 4/3\nFrame rate                       : 29.970 fps\nResolution                       : 24 bits\nColorimetry                      : 4:2:0\nScan type                        : Progressive\nBits/(Pixel*Frame)               : 0.168\nStream size                      : 186 MiB (87%)\nWriting library                  : XviD 1.0.2 (UTC 2004-08-29)\n\nAudio\nFormat                           : MPEG Audio\nFormat version                   : Version 1\nFormat profile                   : Layer 3\nCodec ID                         : 55\nCodec ID/Hint                    : MP3\nDuration                         : 26mn 17s\nBit rate mode                    : Variable\nBit rate                         : 134 Kbps\nChannel(s)                       : 2 channels\nSampling rate                    : 48.0 KHz\nResolution                       : 16 bits\nStream size                      : 25.1 MiB (12%)\nAlignment                        : Aligned on interleaves\nInterleave, duration             : 24 ms (0.72 video frame)\nInterleave, preload duration     : 470 ms\n[url]http://www.fhqhosting.com/ui/1ggggg.swf[/url]\n[IMG]http://i43.servimg.com/u/f43/12/33/79/02/potpis10.gif[/IMG]\n[IMG]http://www.myspaceninja.com/images/gg/glitterhkisses.gif[/IMG]","torrent":{"xt":"urn:btih:fbfabd77a4c24d398cdf78f9a5a6b328bdeb0a5c","amp;dn":"YOUR+FAVORITE+FRECKLE+FACED+REDHEAD-SiLvErDuSt.avi","amp;tr":["udp%3A%2F%2Ftracker.openbittorrent.com%3A80","udp%3A%2F%2Fopen.demonii.com%3A1337","udp%3A%2F%2Ftracker.coppersurfer.tk%3A6969","udp%3A%2F%2Fexodus.desync.com%3A6969"],"infoHash":"fbfabd77a4c24d398cdf78f9a5a6b328bdeb0a5c","infoHashBuffer":{"type":"Buffer","data":[251,250,189,119,164,194,77,57,140,223,120,249,165,166,179,40,189,235,10,92]},"announce":[],"urlList":[]}}